<svg width="1690" height="240" viewBox="0 0 1690 240" fill="none" xmlns="http://www.w3.org/2000/svg">
<g clip-path="url(#clip0_105_7)">
<path d="M124.9 55.2001C128.2 55.6001 131.4 55.9001 134.7 56.3001C142.6 57.4001 150.3 58.9001 157.5 62.6001C159.6 63.7001 161.6 64.9001 163.1 66.8001C165.5 69.6001 165.4 72.6001 163 75.4001C160.5 78.2001 157.3 79.8001 153.9 81.1001C146 84.2001 137.7 85.6001 129.3 86.3001C115.6 87.4001 102.1 86.9001 88.7 83.7001C84.3 82.7001 80 81.3001 76.1 79.1001C74.6 78.3001 73.2 77.3001 71.9 76.1001C68.3 72.6001 68.3 68.9001 72 65.6001C76 62.0001 80.9 60.3001 85.9 58.9001C92.9 56.9001 100 55.9001 107.2 55.4001C107.8 55.4001 108.5 55.6001 109 55.1001C114.2 55.2001 119.6 55.2001 124.9 55.2001Z" fill="#E0E0E0"/>
<path d="M69.2001 137.3C75.6001 145.5 84.7001 148.5 94.1001 150.5C112.7 154.5 131.3 154 149.4 147.6C155 145.6 160.2 142.9 163.9 137.9C164.5 137.1 164.8 137.5 165.1 138.1C165.7 139.4 166 140.7 166 142.1C166 147 166 152 166 156.9C166 160.1 164.5 162.6 162.3 164.8C157.7 169.4 151.9 171.9 145.8 173.8C133.5 177.6 120.9 178.4 108.2 177.5C98.7001 176.8 89.5 175 80.8 171.1C77.1 169.4 73.7001 167.4 71.0001 164.3C68.9001 161.9 67.8 159.2 67.8 156C67.9 151.5 67.8 147 67.8 142.5C67.8 140.7 68.1001 139 69.2001 137.3Z" fill="#8EC63F"/>
<path d="M69.2999 106.4C74.5999 113.5 81.9999 116.5 89.8999 118.6C108.8 123.6 127.7 123.5 146.4 117.9C152.6 116.1 158.4 113.4 162.9 108.5C163.5 107.9 163.9 106.5 164.6 106.7C165.6 107 165.6 108.4 165.9 109.5C166.3 111.2 166.1 112.9 166.1 114.6C166.1 118 166 121.3 166.1 124.7C166.3 128.9 164.6 132.2 161.5 134.9C156.8 139.1 151.1 141.6 145 143.2C124.5 148.7 104.1 148.6 83.9999 141.6C79.0999 139.9 74.5999 137.5 70.9999 133.6C68.7999 131.2 67.7 128.4 67.7 125.1C67.8 120.7 67.7 116.2 67.7 111.8C67.8 110 68.0999 108.2 69.2999 106.4Z" fill="#E0E0E0"/>
<path d="M69.1 76.7C70.6 81.1 74.2 83.0999 78 84.8999C84.8 88.0999 92.1 89.6 99.4 90.5C113.9 92.3 128.4 92.1 142.7 89.1C148.5 87.9 154.1 86.3 159.2 83.1C162.1 81.3 163.6 79.6 164.6 76.8C165.6 78.2 165.9 79.7 165.9 81.2C165.9 86.2 166 91.1 165.9 96.1C165.8 100.3 163.4 103.3 160.3 105.8C154.5 110.4 147.7 112.8 140.6 114.4C121.8 118.5 103.2 118.2 84.9 112C80.1 110.4 75.5 108.1 71.8 104.5C69 101.8 67.5 98.7 67.6 94.7C67.7 90.4 67.6 86.1 67.6 81.8C67.8 79.9 68.1 78.3 69.1 76.7Z" fill="#8EC63F"/>
<path d="M183.9 210.9C200.2 211.8 208.9 191.8 197.1 180.5C184.7 168.6 164.3 179.7 167.5 196.5C93.8 243.5 -0.999981 173.2 26 87.8001L7.80002 75.6001C-33.1 184.3 92.8 276.2 183.9 210.9ZM178.7 187.4C186.3 179.5 198.4 190.5 191.3 198.8C183.8 207.5 170.6 195.8 178.7 187.4Z" fill="#E0E0E0"/>
<path d="M35.2 50.7001C46.9 61.9001 66.2 52.7001 65.1 36.7001C138.7 -10.7 234 59.5001 207 145.2L225.2 157.4C264.9 51.8001 144.4 -43.2999 51.2 20.6001C33.7 17.0001 22.4 38.4001 35.2 50.7001ZM53.6 43.8001C45.8 51.9001 33.5 40.1001 41.3 32.0001C49.1 23.9001 61.4 35.7001 53.6 43.8001Z" fill="#8EC63F"/>
<path d="M323.575 47.8874C323.575 46.7901 323.917 45.8985 324.603 45.2127C325.426 44.3897 326.386 43.9782 327.484 43.9782H369.044C378.92 43.9782 388.041 45.7613 396.408 49.3276C404.913 52.8938 412.251 57.9003 418.423 64.347C424.596 70.6565 429.465 78.2005 433.031 86.979C436.597 95.7575 438.38 105.428 438.38 115.989C438.38 126.551 436.597 136.221 433.031 144.999C429.465 153.778 424.596 161.39 418.423 167.837C412.251 174.146 404.913 179.084 396.408 182.651C388.041 186.217 378.92 188 369.044 188H327.484C326.386 188 325.426 187.657 324.603 186.971C323.917 186.148 323.575 185.188 323.575 184.091V47.8874ZM349.293 69.2849V162.693H369.662C375.834 162.693 381.458 161.527 386.533 159.196C391.608 156.864 395.928 153.641 399.495 149.526C403.198 145.411 406.01 140.541 407.93 134.918C409.988 129.157 411.016 122.847 411.016 115.989C411.016 109.268 409.988 103.027 407.93 97.2663C406.01 91.5054 403.198 86.5675 399.495 82.4526C395.928 78.3377 391.608 75.1143 386.533 72.7826C381.458 70.4508 375.834 69.2849 369.662 69.2849H349.293ZM531.093 177.918C527.389 180.662 523.137 183.131 518.337 185.325C513.536 187.383 508.735 188.411 503.935 188.411C496.802 188.411 490.218 187.108 484.183 184.502C478.148 181.896 472.936 178.261 468.546 173.598C464.294 168.934 460.934 163.448 458.465 157.138C455.996 150.829 454.761 143.97 454.761 136.564C454.761 129.431 456.064 122.779 458.671 116.606C461.277 110.297 464.843 104.81 469.369 100.147C473.896 95.346 479.108 91.574 485.006 88.8307C491.041 86.0874 497.488 84.7158 504.346 84.7158C509.147 84.7158 513.879 85.8131 518.542 88.0077C523.206 90.0652 527.389 92.4655 531.093 95.2088V89.0365C531.093 87.9391 531.436 87.0476 532.122 86.3618C532.945 85.5388 533.905 85.1273 535.002 85.1273H551.05C553.656 85.1273 554.959 86.4303 554.959 89.0365V184.091C554.959 186.697 553.656 188 551.05 188H535.002C533.905 188 532.945 187.657 532.122 186.971C531.436 186.148 531.093 185.188 531.093 184.091V177.918ZM479.657 136.564C479.657 140.267 480.342 143.765 481.714 147.057C483.086 150.211 484.937 153.023 487.269 155.492C489.601 157.961 492.276 159.95 495.293 161.459C498.448 162.83 501.74 163.516 505.169 163.516C508.872 163.516 512.233 162.83 515.251 161.459C518.268 159.95 520.874 157.961 523.069 155.492C525.401 153.023 527.184 150.211 528.418 147.057C529.653 143.765 530.27 140.267 530.27 136.564C530.27 132.86 529.653 129.431 528.418 126.276C527.184 122.984 525.401 120.104 523.069 117.635C520.874 115.166 518.268 113.246 515.251 111.874C512.233 110.365 508.872 109.611 505.169 109.611C501.74 109.611 498.448 110.365 495.293 111.874C492.276 113.246 489.601 115.166 487.269 117.635C484.937 120.104 483.086 122.984 481.714 126.276C480.342 129.431 479.657 132.86 479.657 136.564ZM574.407 89.0365C574.407 87.9391 574.75 87.0476 575.436 86.3618C576.122 85.5388 577.013 85.1273 578.111 85.1273H593.336V58.1746C593.336 57.0773 593.679 56.1858 594.364 55.4999C595.187 54.677 596.148 54.2655 597.245 54.2655H613.293C615.899 54.2655 617.202 55.5685 617.202 58.1746V85.1273H635.308C636.405 85.1273 637.297 85.5388 637.982 86.3618C638.668 87.0476 639.011 87.9391 639.011 89.0365V104.262C639.011 105.359 638.668 106.25 637.982 106.936C637.297 107.622 636.405 107.965 635.308 107.965H617.202V184.091C617.202 186.697 615.899 188 613.293 188H597.245C596.148 188 595.187 187.657 594.364 186.971C593.679 186.148 593.336 185.188 593.336 184.091V107.965H578.111C577.013 107.965 576.122 107.622 575.436 106.936C574.75 106.25 574.407 105.359 574.407 104.262V89.0365ZM729.693 177.918C725.99 180.662 721.738 183.131 716.937 185.325C712.137 187.383 707.336 188.411 702.535 188.411C695.403 188.411 688.819 187.108 682.784 184.502C676.748 181.896 671.536 178.261 667.147 173.598C662.895 168.934 659.534 163.448 657.065 157.138C654.596 150.829 653.362 143.97 653.362 136.564C653.362 129.431 654.665 122.779 657.271 116.606C659.877 110.297 663.443 104.81 667.97 100.147C672.496 95.346 677.708 91.574 683.607 88.8307C689.642 86.0874 696.088 84.7158 702.947 84.7158C707.747 84.7158 712.479 85.8131 717.143 88.0077C721.807 90.0652 725.99 92.4655 729.693 95.2088V89.0365C729.693 87.9391 730.036 87.0476 730.722 86.3618C731.545 85.5388 732.505 85.1273 733.603 85.1273H749.651C752.257 85.1273 753.56 86.4303 753.56 89.0365V184.091C753.56 186.697 752.257 188 749.651 188H733.603C732.505 188 731.545 187.657 730.722 186.971C730.036 186.148 729.693 185.188 729.693 184.091V177.918ZM678.257 136.564C678.257 140.267 678.943 143.765 680.315 147.057C681.686 150.211 683.538 153.023 685.87 155.492C688.201 157.961 690.876 159.95 693.894 161.459C697.049 162.83 700.34 163.516 703.77 163.516C707.473 163.516 710.833 162.83 713.851 161.459C716.869 159.95 719.475 157.961 721.669 155.492C724.001 153.023 725.784 150.211 727.019 147.057C728.253 143.765 728.87 140.267 728.87 136.564C728.87 132.86 728.253 129.431 727.019 126.276C725.784 122.984 724.001 120.104 721.669 117.635C719.475 115.166 716.869 113.246 713.851 111.874C710.833 110.365 707.473 109.611 703.77 109.611C700.34 109.611 697.049 110.365 693.894 111.874C690.876 113.246 688.201 115.166 685.87 117.635C683.538 120.104 681.686 122.984 680.315 126.276C678.943 129.431 678.257 132.86 678.257 136.564Z" fill="#E0E0E0"/>
<path d="M873.206 74.2228C872.657 75.0458 871.903 75.5258 870.943 75.663C869.982 75.8002 869.022 75.5944 868.062 75.0458C864.907 73.1255 861.135 71.4795 856.746 70.1079C852.357 68.7362 847.899 68.119 843.373 68.2562C837.475 68.2562 831.988 69.5592 826.913 72.1653C821.975 74.6343 817.654 78.0634 813.951 82.4526C810.248 86.7047 807.367 91.7111 805.31 97.472C803.252 103.233 802.292 109.405 802.429 115.989C802.566 122.847 803.595 129.225 805.515 135.123C807.573 140.884 810.385 145.891 813.951 150.143C817.517 154.395 821.838 157.755 826.913 160.224C831.988 162.556 837.68 163.722 843.99 163.722C850.025 163.585 855.512 162.556 860.45 160.636C865.525 158.716 870.531 155.972 875.469 152.406C876.429 151.72 877.458 151.514 878.555 151.789C879.652 151.926 880.544 152.475 881.23 153.435L891.106 168.248C892.34 170.169 891.997 171.883 890.077 173.392C882.533 179.153 875.195 183.336 868.062 185.943C860.93 188.549 852.974 189.852 844.196 189.852C833.634 189.989 824.101 188.343 815.597 184.914C807.23 181.348 800.029 176.341 793.994 169.894C788.096 163.311 783.501 155.492 780.209 146.439C777.054 137.387 775.408 127.374 775.271 116.401C775.134 107.073 776.574 98.0207 779.592 89.2422C782.746 80.3266 787.204 72.3711 792.965 65.3757C798.726 58.3804 805.721 52.7567 813.951 48.5046C822.181 44.2525 831.439 42.1265 841.727 42.1265C848.722 41.9893 855.58 42.8123 862.301 44.5954C869.159 46.3786 875.88 49.6705 882.464 54.4712C883.424 55.157 883.973 56.0486 884.11 57.1459C884.247 58.1061 883.973 59.0662 883.287 60.0263L873.206 74.2228ZM906.212 136.564C906.212 129.294 907.515 122.504 910.121 116.195C912.727 109.885 916.225 104.399 920.614 99.7352C925.14 95.0717 930.421 91.4368 936.456 88.8307C942.492 86.0874 949.007 84.7158 956.002 84.7158C962.998 84.7158 969.444 86.0874 975.342 88.8307C981.377 91.4368 986.59 95.0717 990.979 99.7352C995.505 104.399 999.003 109.885 1001.47 116.195C1004.08 122.504 1005.38 129.294 1005.38 136.564C1005.38 143.833 1004.08 150.623 1001.47 156.932C999.003 163.242 995.505 168.729 990.979 173.392C986.59 178.056 981.377 181.759 975.342 184.502C969.307 187.108 962.792 188.411 955.796 188.411C948.801 188.411 942.286 187.108 936.251 184.502C930.215 181.759 924.935 178.056 920.408 173.392C916.019 168.729 912.521 163.242 909.915 156.932C907.446 150.623 906.212 143.833 906.212 136.564ZM931.107 136.564C931.107 140.404 931.724 144.039 932.959 147.468C934.193 150.76 935.908 153.641 938.102 156.109C940.297 158.578 942.903 160.567 945.921 162.076C948.938 163.448 952.23 164.134 955.796 164.134C959.363 164.134 962.655 163.448 965.672 162.076C968.827 160.567 971.502 158.578 973.696 156.109C975.891 153.641 977.605 150.76 978.84 147.468C980.074 144.039 980.692 140.404 980.692 136.564C980.692 132.723 980.074 129.157 978.84 125.865C977.605 122.436 975.891 119.487 973.696 117.018C971.502 114.549 968.827 112.629 965.672 111.257C962.655 109.748 959.363 108.994 955.796 108.994C952.23 108.994 948.938 109.748 945.921 111.257C942.903 112.629 940.297 114.549 938.102 117.018C935.908 119.487 934.193 122.436 932.959 125.865C931.724 129.157 931.107 132.723 931.107 136.564ZM1050.9 184.091C1050.9 186.697 1049.59 188 1046.99 188H1030.94C1029.84 188 1028.88 187.657 1028.06 186.971C1027.37 186.148 1027.03 185.188 1027.03 184.091V89.0365C1027.03 87.9391 1027.37 87.0476 1028.06 86.3618C1028.88 85.5388 1029.84 85.1273 1030.94 85.1273H1046.99C1049.59 85.1273 1050.9 86.4303 1050.9 89.0365V96.649C1054.88 93.3571 1059.47 90.5453 1064.68 88.2135C1069.89 85.8817 1075.04 84.7158 1080.11 84.7158C1084.91 84.7158 1089.37 85.6074 1093.49 87.3905C1097.6 89.0365 1101.1 91.4368 1103.98 94.5916C1107 97.6092 1109.33 101.175 1110.98 105.29C1112.62 109.405 1113.44 113.932 1113.44 118.87V184.091C1113.44 186.697 1112.14 188 1109.53 188H1093.49C1092.39 188 1091.43 187.657 1090.61 186.971C1089.92 186.148 1089.58 185.188 1089.58 184.091V126.688C1089.58 121.064 1088.27 116.744 1085.67 113.726C1083.06 110.571 1079.36 108.994 1074.56 108.994C1071.54 108.994 1068.59 109.611 1065.71 110.845C1062.97 111.943 1060.5 113.52 1058.3 115.578C1056.25 117.498 1054.53 119.83 1053.16 122.573C1051.93 125.316 1051.31 128.197 1051.31 131.214L1050.9 184.091ZM1127.87 89.0365C1127.87 87.9391 1128.21 87.0476 1128.9 86.3618C1129.58 85.5388 1130.48 85.1273 1131.57 85.1273H1146.8V58.1746C1146.8 57.0773 1147.14 56.1858 1147.83 55.4999C1148.65 54.677 1149.61 54.2655 1150.71 54.2655H1166.76C1169.36 54.2655 1170.67 55.5685 1170.67 58.1746V85.1273H1188.77C1189.87 85.1273 1190.76 85.5388 1191.45 86.3618C1192.13 87.0476 1192.47 87.9391 1192.47 89.0365V104.262C1192.47 105.359 1192.13 106.25 1191.45 106.936C1190.76 107.622 1189.87 107.965 1188.77 107.965H1170.67V184.091C1170.67 186.697 1169.36 188 1166.76 188H1150.71C1149.61 188 1148.65 187.657 1147.83 186.971C1147.14 186.148 1146.8 185.188 1146.8 184.091V107.965H1131.57C1130.48 107.965 1129.58 107.622 1128.9 106.936C1128.21 106.25 1127.87 105.359 1127.87 104.262V89.0365ZM1273.28 108.171C1272.87 109.268 1272.18 110.022 1271.22 110.434C1270.26 110.845 1269.23 110.777 1268.14 110.228C1267.04 109.68 1265.67 109.2 1264.02 108.788C1262.51 108.377 1260.87 108.171 1259.08 108.171C1256.07 108.171 1253.19 108.788 1250.44 110.022C1247.7 111.257 1245.23 112.972 1243.04 115.166C1240.98 117.224 1239.33 119.693 1238.1 122.573C1236.86 125.316 1236.25 128.197 1236.25 131.214L1235.84 184.091C1235.84 185.188 1235.49 186.148 1234.81 186.971C1234.12 187.657 1233.23 188 1232.13 188H1215.88C1214.78 188 1213.82 187.657 1213 186.971C1212.31 186.148 1211.97 185.188 1211.97 184.091V89.0365C1211.97 87.9391 1212.31 87.0476 1213 86.3618C1213.82 85.5388 1214.78 85.1273 1215.88 85.1273H1232.13C1233.23 85.1273 1234.12 85.5388 1234.81 86.3618C1235.49 87.0476 1235.84 87.9391 1235.84 89.0365V94.5916C1239.81 91.7111 1244.07 89.3794 1248.59 87.5962C1253.12 85.6759 1257.99 84.7158 1263.2 84.7158C1268.55 84.7158 1273.21 85.7445 1277.19 87.802C1279.11 89.0365 1279.73 90.6138 1279.04 92.5341L1273.28 108.171ZM1285.33 136.564C1285.33 129.294 1286.63 122.504 1289.24 116.195C1291.85 109.885 1295.34 104.399 1299.73 99.7352C1304.26 95.0717 1309.54 91.4368 1315.57 88.8307C1321.61 86.0874 1328.12 84.7158 1335.12 84.7158C1342.12 84.7158 1348.56 86.0874 1354.46 88.8307C1360.5 91.4368 1365.71 95.0717 1370.1 99.7352C1374.62 104.399 1378.12 109.885 1380.59 116.195C1383.2 122.504 1384.5 129.294 1384.5 136.564C1384.5 143.833 1383.2 150.623 1380.59 156.932C1378.12 163.242 1374.62 168.729 1370.1 173.392C1365.71 178.056 1360.5 181.759 1354.46 184.502C1348.43 187.108 1341.91 188.411 1334.91 188.411C1327.92 188.411 1321.4 187.108 1315.37 184.502C1309.33 181.759 1304.05 178.056 1299.53 173.392C1295.14 168.729 1291.64 163.242 1289.03 156.932C1286.56 150.623 1285.33 143.833 1285.33 136.564ZM1310.23 136.564C1310.23 140.404 1310.84 144.039 1312.08 147.468C1313.31 150.76 1315.03 153.641 1317.22 156.109C1319.42 158.578 1322.02 160.567 1325.04 162.076C1328.06 163.448 1331.35 164.134 1334.91 164.134C1338.48 164.134 1341.77 163.448 1344.79 162.076C1347.95 160.567 1350.62 158.578 1352.81 156.109C1355.01 153.641 1356.72 150.76 1357.96 147.468C1359.19 144.039 1359.81 140.404 1359.81 136.564C1359.81 132.723 1359.19 129.157 1357.96 125.865C1356.72 122.436 1355.01 119.487 1352.81 117.018C1350.62 114.549 1347.95 112.629 1344.79 111.257C1341.77 109.748 1338.48 108.994 1334.91 108.994C1331.35 108.994 1328.06 109.748 1325.04 111.257C1322.02 112.629 1319.42 114.549 1317.22 117.018C1315.03 119.487 1313.31 122.436 1312.08 125.865C1310.84 129.157 1310.23 132.723 1310.23 136.564ZM1408.21 37.3944C1408.21 36.297 1408.55 35.4055 1409.24 34.7197C1410.06 34.0338 1411.02 33.6909 1412.12 33.6909H1428.16C1429.26 33.6909 1430.15 34.0338 1430.84 34.7197C1431.66 35.4055 1432.07 36.297 1432.07 37.3944V184.091C1432.07 186.697 1430.77 188 1428.16 188H1412.12C1411.02 188 1410.06 187.657 1409.24 186.971C1408.55 186.148 1408.21 185.188 1408.21 184.091V37.3944ZM1463 37.3944C1463 36.297 1463.35 35.4055 1464.03 34.7197C1464.85 34.0338 1465.81 33.6909 1466.91 33.6909H1482.96C1484.06 33.6909 1484.95 34.0338 1485.63 34.7197C1486.46 35.4055 1486.87 36.297 1486.87 37.3944V184.091C1486.87 186.697 1485.57 188 1482.96 188H1466.91C1465.81 188 1464.85 187.657 1464.03 186.971C1463.35 186.148 1463 185.188 1463 184.091V37.3944ZM1537.76 148.085C1539.68 152.886 1542.56 156.795 1546.4 159.813C1550.37 162.83 1554.9 164.339 1559.98 164.339C1563.68 164.339 1567.25 163.722 1570.67 162.488C1574.1 161.253 1576.98 159.539 1579.32 157.344C1580.14 156.658 1581.03 156.384 1581.99 156.521C1583.09 156.521 1583.98 156.864 1584.67 157.55L1596.39 168.66C1597.08 169.346 1597.42 170.237 1597.42 171.335C1597.42 172.295 1597.08 173.118 1596.39 173.804C1591.87 178.604 1586.52 182.239 1580.34 184.708C1574.17 187.177 1567.38 188.411 1559.98 188.411C1553.12 188.411 1546.74 187.177 1540.84 184.708C1535.08 182.239 1530.01 178.741 1525.62 174.215C1520.82 169.414 1517.11 163.722 1514.51 157.138C1511.9 150.554 1510.6 143.559 1510.6 136.152C1510.6 129.02 1511.9 122.367 1514.51 116.195C1517.11 109.885 1520.61 104.399 1525 99.7352C1529.53 95.0717 1534.81 91.4368 1540.84 88.8307C1546.88 86.0874 1553.32 84.7158 1560.18 84.7158C1566.49 84.7158 1572.32 85.8817 1577.67 88.2135C1583.16 90.5453 1587.96 93.7686 1592.07 97.8835C1593.86 99.5295 1595.57 101.45 1597.22 103.644C1598.86 105.839 1600.3 108.377 1601.54 111.257C1602.77 114.137 1603.73 117.498 1604.42 121.338C1605.24 125.042 1605.65 129.294 1605.65 134.095C1605.65 137.387 1605.45 140.953 1605.03 144.793C1604.76 146.988 1603.53 148.085 1601.33 148.085H1537.76ZM1559.56 108.788C1553.8 108.788 1549.07 110.365 1545.37 113.52C1541.66 116.675 1539.06 120.584 1537.55 125.248H1580.76C1579.25 120.858 1576.71 117.018 1573.14 113.726C1569.71 110.434 1565.19 108.788 1559.56 108.788ZM1688.51 108.171C1688.1 109.268 1687.41 110.022 1686.45 110.434C1685.49 110.845 1684.46 110.777 1683.37 110.228C1682.27 109.68 1680.9 109.2 1679.25 108.788C1677.74 108.377 1676.1 108.171 1674.31 108.171C1671.29 108.171 1668.41 108.788 1665.67 110.022C1662.93 111.257 1660.46 112.972 1658.26 115.166C1656.21 117.224 1654.56 119.693 1653.33 122.573C1652.09 125.316 1651.47 128.197 1651.47 131.214L1651.06 184.091C1651.06 185.188 1650.72 186.148 1650.03 186.971C1649.35 187.657 1648.46 188 1647.36 188H1631.11C1630.01 188 1629.05 187.657 1628.23 186.971C1627.54 186.148 1627.2 185.188 1627.2 184.091V89.0365C1627.2 87.9391 1627.54 87.0476 1628.23 86.3618C1629.05 85.5388 1630.01 85.1273 1631.11 85.1273H1647.36C1648.46 85.1273 1649.35 85.5388 1650.03 86.3618C1650.72 87.0476 1651.06 87.9391 1651.06 89.0365V94.5916C1655.04 91.7111 1659.29 89.3794 1663.82 87.5962C1668.35 85.6759 1673.22 84.7158 1678.43 84.7158C1683.78 84.7158 1688.44 85.7445 1692.42 87.802C1694.34 89.0365 1694.96 90.6138 1694.27 92.5341L1688.51 108.171Z" fill="#8EC63F"/>
</g>
<defs>
<clipPath id="clip0_105_7">
<rect width="1689" height="240" fill="white"/>
</clipPath>
</defs>
</svg>
